<?xml version="1.0" encoding="UTF-8" standalone="no"?>
<!DOCTYPE svg PUBLIC "-//W3C//DTD SVG 1.1//EN"
 "http://www.w3.org/Graphics/SVG/1.1/DTD/svg11.dtd">
<!-- Generated by graphviz version 12.2.1 (20241206.2353)
 -->
<!-- Pages: 1 -->
<svg width="374pt" height="369pt"
 viewBox="0.00 0.00 373.50 368.89" xmlns="http://www.w3.org/2000/svg" xmlns:xlink="http://www.w3.org/1999/xlink">
<g id="graph0" class="graph" transform="scale(1 1) rotate(0) translate(4 364.89)">
<polygon fill="white" stroke="none" points="-4,4 -4,-364.89 369.5,-364.89 369.5,4 -4,4"/>
<text text-anchor="middle" x="182.75" y="-343.59" font-family="Liberation Sans italic bold" font-size="14.00">Transition diagram for Turing machine &#39;Even Machine&#39;</text>
<!-- start -->
<g id="node1" class="node">
<title>start</title>
<text text-anchor="middle" x="172.29" y="-314.09" font-family="Times New Roman,serif" font-size="14.00">start</text>
</g>
<!-- s0 -->
<g id="node2" class="node">
<title>s0</title>
<ellipse fill="none" stroke="black" cx="172.29" cy="-246.14" rx="27" ry="18"/>
<text text-anchor="middle" x="172.29" y="-241.09" font-family="Times New Roman,serif" font-size="14.00">s0</text>
</g>
<!-- start&#45;&gt;s0 -->
<g id="edge1" class="edge">
<title>start&#45;&gt;s0</title>
<path fill="none" stroke="black" d="M172.29,-301.31C172.29,-293.7 172.29,-284.49 172.29,-275.83"/>
<polygon fill="black" stroke="black" points="175.79,-276.1 172.29,-266.1 168.79,-276.1 175.79,-276.1"/>
</g>
<!-- s1 -->
<g id="node3" class="node">
<title>s1</title>
<ellipse fill="none" stroke="black" cx="135.29" cy="-146.39" rx="27" ry="18"/>
<text text-anchor="middle" x="135.29" y="-141.34" font-family="Times New Roman,serif" font-size="14.00">s1</text>
</g>
<!-- s0&#45;&gt;s1 -->
<g id="edge2" class="edge">
<title>s0&#45;&gt;s1</title>
<path fill="none" stroke="black" d="M148.25,-237.63C135.28,-232.2 120.4,-223.45 112.79,-210.14 106.07,-198.41 110.17,-184.32 116.61,-172.47"/>
<polygon fill="black" stroke="black" points="119.55,-174.37 121.86,-164.03 113.6,-170.67 119.55,-174.37"/>
<text text-anchor="middle" x="131.54" y="-196.84" font-family="Times New Roman,serif" font-size="14.00">1, 1, R</text>
</g>
<!-- true -->
<g id="node4" class="node">
<title>true</title>
<ellipse fill="none" stroke="black" cx="233.29" cy="-146.39" rx="25.25" ry="25.25"/>
<ellipse fill="none" stroke="black" cx="233.29" cy="-146.39" rx="29.25" ry="29.25"/>
<text text-anchor="middle" x="233.29" y="-141.34" font-family="Times New Roman,serif" font-size="14.00">true</text>
</g>
<!-- s0&#45;&gt;true -->
<g id="edge4" class="edge">
<title>s0&#45;&gt;true</title>
<path fill="none" stroke="black" d="M184.93,-229.85C189.66,-223.86 194.93,-216.83 199.29,-210.14 204.88,-201.54 210.42,-191.93 215.34,-182.87"/>
<polygon fill="black" stroke="black" points="218.3,-184.77 219.91,-174.3 212.12,-181.48 218.3,-184.77"/>
<text text-anchor="middle" x="227.6" y="-196.84" font-family="Times New Roman,serif" font-size="14.00">0, 0, N</text>
</g>
<!-- s1&#45;&gt;s0 -->
<g id="edge3" class="edge">
<title>s1&#45;&gt;s0</title>
<path fill="none" stroke="black" d="M141.59,-164.05C147.18,-178.82 155.45,-200.67 162,-217.97"/>
<polygon fill="black" stroke="black" points="158.66,-219.03 165.47,-227.14 165.21,-216.55 158.66,-219.03"/>
<text text-anchor="middle" x="176.94" y="-196.84" font-family="Times New Roman,serif" font-size="14.00">1, 1, R</text>
</g>
<!-- false -->
<g id="node5" class="node">
<title>false</title>
<ellipse fill="none" stroke="black" cx="135.29" cy="-32.32" rx="28.32" ry="28.32"/>
<ellipse fill="none" stroke="black" cx="135.29" cy="-32.32" rx="32.32" ry="32.32"/>
<text text-anchor="middle" x="135.29" y="-27.27" font-family="Times New Roman,serif" font-size="14.00">false</text>
</g>
<!-- s1&#45;&gt;false -->
<g id="edge5" class="edge">
<title>s1&#45;&gt;false</title>
<path fill="none" stroke="black" d="M135.29,-128.37C135.29,-114.54 135.29,-94.42 135.29,-76.25"/>
<polygon fill="black" stroke="black" points="138.79,-76.48 135.29,-66.48 131.79,-76.48 138.79,-76.48"/>
<text text-anchor="middle" x="154.41" y="-85.84" font-family="Times New Roman,serif" font-size="14.00">0, 0, N</text>
</g>
</g>
</svg>
