<?xml version="1.0" encoding="UTF-8" standalone="no"?>
<!DOCTYPE svg PUBLIC "-//W3C//DTD SVG 1.1//EN"
 "http://www.w3.org/Graphics/SVG/1.1/DTD/svg11.dtd">
<!-- Generated by graphviz version 12.2.1 (20241206.2353)
 -->
<!-- Pages: 1 -->
<svg width="392pt" height="495pt"
 viewBox="0.00 0.00 392.25 494.75" xmlns="http://www.w3.org/2000/svg" xmlns:xlink="http://www.w3.org/1999/xlink">
<g id="graph0" class="graph" transform="scale(1 1) rotate(0) translate(4 490.75)">
<polygon fill="white" stroke="none" points="-4,4 -4,-490.75 388.25,-490.75 388.25,4 -4,4"/>
<text text-anchor="middle" x="192.12" y="-469.45" font-family="Liberation Sans italic bold" font-size="14.00">Transition diagram for Turing machine &#39;Doubler Machine&#39;</text>
<!-- start -->
<g id="node1" class="node">
<title>start</title>
<text text-anchor="middle" x="166.28" y="-439.95" font-family="Times New Roman,serif" font-size="14.00">start</text>
</g>
<!-- s1 -->
<g id="node2" class="node">
<title>s1</title>
<ellipse fill="none" stroke="black" cx="166.28" cy="-372" rx="27" ry="18"/>
<text text-anchor="middle" x="166.28" y="-366.95" font-family="Times New Roman,serif" font-size="14.00">s1</text>
</g>
<!-- start&#45;&gt;s1 -->
<g id="edge1" class="edge">
<title>start&#45;&gt;s1</title>
<path fill="none" stroke="black" d="M166.28,-427.17C166.28,-419.56 166.28,-410.35 166.28,-401.7"/>
<polygon fill="black" stroke="black" points="169.78,-401.96 166.28,-391.96 162.78,-401.96 169.78,-401.96"/>
</g>
<!-- final -->
<g id="node3" class="node">
<title>final</title>
<ellipse fill="none" stroke="black" cx="93.28" cy="-283.5" rx="27.81" ry="18"/>
<text text-anchor="middle" x="93.28" y="-278.45" font-family="Times New Roman,serif" font-size="14.00">final</text>
</g>
<!-- s1&#45;&gt;final -->
<g id="edge2" class="edge">
<title>s1&#45;&gt;final</title>
<path fill="none" stroke="black" d="M148.22,-358.25C140.25,-352.09 131.1,-344.24 124.03,-336 117.64,-328.55 111.79,-319.61 106.95,-311.28"/>
<polygon fill="black" stroke="black" points="110.02,-309.6 102.12,-302.55 103.9,-312.99 110.02,-309.6"/>
<text text-anchor="middle" x="143.15" y="-322.7" font-family="Times New Roman,serif" font-size="14.00">0, 0, N</text>
</g>
<!-- s2 -->
<g id="node4" class="node">
<title>s2</title>
<ellipse fill="none" stroke="black" cx="166.28" cy="-283.5" rx="27" ry="18"/>
<text text-anchor="middle" x="166.28" y="-278.45" font-family="Times New Roman,serif" font-size="14.00">s2</text>
</g>
<!-- s1&#45;&gt;s2 -->
<g id="edge3" class="edge">
<title>s1&#45;&gt;s2</title>
<path fill="none" stroke="black" d="M166.28,-353.91C166.28,-342.26 166.28,-326.55 166.28,-313.02"/>
<polygon fill="black" stroke="black" points="169.78,-313.36 166.28,-303.36 162.78,-313.36 169.78,-313.36"/>
<text text-anchor="middle" x="185.03" y="-322.7" font-family="Times New Roman,serif" font-size="14.00">1, 0, R</text>
</g>
<!-- s2&#45;&gt;s2 -->
<g id="edge4" class="edge">
<title>s2&#45;&gt;s2</title>
<path fill="none" stroke="black" d="M190.81,-291.67C201.79,-292.45 211.28,-289.72 211.28,-283.5 211.28,-279.61 207.57,-277.09 202.11,-275.93"/>
<polygon fill="black" stroke="black" points="202.49,-272.45 192.32,-275.41 202.12,-279.44 202.49,-272.45"/>
<text text-anchor="middle" x="230.03" y="-278.45" font-family="Times New Roman,serif" font-size="14.00">1, 1, R</text>
</g>
<!-- s3 -->
<g id="node5" class="node">
<title>s3</title>
<ellipse fill="none" stroke="black" cx="162.28" cy="-195" rx="27" ry="18"/>
<text text-anchor="middle" x="162.28" y="-189.95" font-family="Times New Roman,serif" font-size="14.00">s3</text>
</g>
<!-- s2&#45;&gt;s3 -->
<g id="edge5" class="edge">
<title>s2&#45;&gt;s3</title>
<path fill="none" stroke="black" d="M165.49,-265.41C164.95,-253.76 164.22,-238.05 163.6,-224.52"/>
<polygon fill="black" stroke="black" points="167.11,-224.69 163.15,-214.86 160.12,-225.01 167.11,-224.69"/>
<text text-anchor="middle" x="183.39" y="-234.2" font-family="Times New Roman,serif" font-size="14.00">0, 0, R</text>
</g>
<!-- s3&#45;&gt;s3 -->
<g id="edge6" class="edge">
<title>s3&#45;&gt;s3</title>
<path fill="none" stroke="black" d="M186.81,-203.17C197.79,-203.95 207.28,-201.22 207.28,-195 207.28,-191.11 203.57,-188.59 198.11,-187.43"/>
<polygon fill="black" stroke="black" points="198.49,-183.95 188.32,-186.91 198.12,-190.94 198.49,-183.95"/>
<text text-anchor="middle" x="226.03" y="-189.95" font-family="Times New Roman,serif" font-size="14.00">1, 1, R</text>
</g>
<!-- s4 -->
<g id="node6" class="node">
<title>s4</title>
<ellipse fill="none" stroke="black" cx="169.28" cy="-106.5" rx="27" ry="18"/>
<text text-anchor="middle" x="169.28" y="-101.45" font-family="Times New Roman,serif" font-size="14.00">s4</text>
</g>
<!-- s3&#45;&gt;s4 -->
<g id="edge7" class="edge">
<title>s3&#45;&gt;s4</title>
<path fill="none" stroke="black" d="M163.66,-176.91C164.61,-165.26 165.88,-149.55 166.97,-136.02"/>
<polygon fill="black" stroke="black" points="170.43,-136.61 167.75,-126.36 163.46,-136.04 170.43,-136.61"/>
<text text-anchor="middle" x="184.78" y="-145.7" font-family="Times New Roman,serif" font-size="14.00">0, 1, L</text>
</g>
<!-- s4&#45;&gt;s4 -->
<g id="edge8" class="edge">
<title>s4&#45;&gt;s4</title>
<path fill="none" stroke="black" d="M193.81,-114.67C204.79,-115.45 214.28,-112.72 214.28,-106.5 214.28,-102.61 210.57,-100.09 205.11,-98.93"/>
<polygon fill="black" stroke="black" points="205.49,-95.45 195.32,-98.41 205.12,-102.44 205.49,-95.45"/>
<text text-anchor="middle" x="232.65" y="-101.45" font-family="Times New Roman,serif" font-size="14.00">1, 1, L</text>
</g>
<!-- s5 -->
<g id="node7" class="node">
<title>s5</title>
<ellipse fill="none" stroke="black" cx="225.28" cy="-18" rx="27" ry="18"/>
<text text-anchor="middle" x="225.28" y="-12.95" font-family="Times New Roman,serif" font-size="14.00">s5</text>
</g>
<!-- s4&#45;&gt;s5 -->
<g id="edge9" class="edge">
<title>s4&#45;&gt;s5</title>
<path fill="none" stroke="black" d="M179.55,-89.63C187.71,-77.03 199.28,-59.16 208.74,-44.55"/>
<polygon fill="black" stroke="black" points="211.56,-46.62 214.06,-36.33 205.69,-42.82 211.56,-46.62"/>
<text text-anchor="middle" x="220.67" y="-57.2" font-family="Times New Roman,serif" font-size="14.00">0, 0, L</text>
</g>
<!-- s5&#45;&gt;s1 -->
<g id="edge11" class="edge">
<title>s5&#45;&gt;s1</title>
<path fill="none" stroke="black" d="M241.48,-32.83C258.02,-48.58 281.28,-75.98 281.28,-105.5 281.28,-284.5 281.28,-284.5 281.28,-284.5 281.28,-324.85 235.5,-348.72 201.71,-360.84"/>
<polygon fill="black" stroke="black" points="201.03,-357.38 192.67,-363.88 203.26,-364.01 201.03,-357.38"/>
<text text-anchor="middle" x="300.03" y="-189.95" font-family="Times New Roman,serif" font-size="14.00">0, 1, R</text>
</g>
<!-- s5&#45;&gt;s5 -->
<g id="edge10" class="edge">
<title>s5&#45;&gt;s5</title>
<path fill="none" stroke="black" d="M249.81,-26.17C260.79,-26.95 270.28,-24.22 270.28,-18 270.28,-14.11 266.57,-11.59 261.11,-10.43"/>
<polygon fill="black" stroke="black" points="261.49,-6.95 251.32,-9.91 261.12,-13.94 261.49,-6.95"/>
<text text-anchor="middle" x="288.65" y="-12.95" font-family="Times New Roman,serif" font-size="14.00">1, 1, L</text>
</g>
</g>
</svg>
