<?xml version="1.0" encoding="UTF-8" standalone="no"?>
<!DOCTYPE svg PUBLIC "-//W3C//DTD SVG 1.1//EN"
 "http://www.w3.org/Graphics/SVG/1.1/DTD/svg11.dtd">
<!-- Generated by graphviz version 12.2.1 (20241206.2353)
 -->
<!-- Pages: 1 -->
<svg width="406pt" height="229pt"
 viewBox="0.00 0.00 405.75 229.25" xmlns="http://www.w3.org/2000/svg" xmlns:xlink="http://www.w3.org/1999/xlink">
<g id="graph0" class="graph" transform="scale(1 1) rotate(0) translate(4 225.25)">
<polygon fill="white" stroke="none" points="-4,4 -4,-225.25 401.75,-225.25 401.75,4 -4,4"/>
<text text-anchor="middle" x="198.88" y="-203.95" font-family="Liberation Sans italic bold" font-size="14.00">Transition diagram for Turing machine &#39;One Third Machine&#39;</text>
<!-- start -->
<g id="node1" class="node">
<title>start</title>
<text text-anchor="middle" x="190.45" y="-174.45" font-family="Times New Roman,serif" font-size="14.00">start</text>
</g>
<!-- a -->
<g id="node2" class="node">
<title>a</title>
<ellipse fill="none" stroke="black" cx="190.45" cy="-106.5" rx="27" ry="18"/>
<text text-anchor="middle" x="190.45" y="-101.45" font-family="Times New Roman,serif" font-size="14.00">a</text>
</g>
<!-- start&#45;&gt;a -->
<g id="edge1" class="edge">
<title>start&#45;&gt;a</title>
<path fill="none" stroke="black" d="M190.45,-161.67C190.45,-154.06 190.45,-144.85 190.45,-136.2"/>
<polygon fill="black" stroke="black" points="193.95,-136.46 190.45,-126.46 186.95,-136.46 193.95,-136.46"/>
</g>
<!-- b -->
<g id="node3" class="node">
<title>b</title>
<ellipse fill="none" stroke="black" cx="190.45" cy="-18" rx="27" ry="18"/>
<text text-anchor="middle" x="190.45" y="-12.95" font-family="Times New Roman,serif" font-size="14.00">b</text>
</g>
<!-- a&#45;&gt;b -->
<g id="edge2" class="edge">
<title>a&#45;&gt;b</title>
<path fill="none" stroke="black" d="M175.13,-91.26C169.9,-85.39 164.68,-78.18 161.95,-70.5 159.49,-63.59 159.49,-60.91 161.95,-54 163.4,-49.92 165.55,-45.97 168.04,-42.29"/>
<polygon fill="black" stroke="black" points="170.78,-44.46 174.19,-34.43 165.27,-40.14 170.78,-44.46"/>
<text text-anchor="middle" x="180.7" y="-57.2" font-family="Times New Roman,serif" font-size="14.00">0, 0, R</text>
</g>
<!-- b&#45;&gt;a -->
<g id="edge3" class="edge">
<title>b&#45;&gt;a</title>
<path fill="none" stroke="black" d="M195.72,-35.92C197.24,-41.61 198.7,-48.02 199.45,-54 200.37,-61.28 200.37,-63.22 199.45,-70.5 199.16,-72.83 198.75,-75.24 198.28,-77.63"/>
<polygon fill="black" stroke="black" points="194.94,-76.57 196.06,-87.1 201.75,-78.17 194.94,-76.57"/>
<text text-anchor="middle" x="218.89" y="-57.2" font-family="Times New Roman,serif" font-size="14.00">0, 1, R</text>
</g>
</g>
</svg>
