<?xml version="1.0" encoding="UTF-8" standalone="no"?>
<!DOCTYPE svg PUBLIC "-//W3C//DTD SVG 1.1//EN"
 "http://www.w3.org/Graphics/SVG/1.1/DTD/svg11.dtd">
<!-- Generated by graphviz version 12.2.1 (20241206.2353)
 -->
<!-- Pages: 1 -->
<svg width="422pt" height="339pt"
 viewBox="0.00 0.00 422.25 339.22" xmlns="http://www.w3.org/2000/svg" xmlns:xlink="http://www.w3.org/1999/xlink">
<g id="graph0" class="graph" transform="scale(1 1) rotate(0) translate(4 335.22)">
<polygon fill="white" stroke="none" points="-4,4 -4,-335.22 418.25,-335.22 418.25,4 -4,4"/>
<text text-anchor="middle" x="207.12" y="-313.92" font-family="Liberation Sans italic bold" font-size="14.00">Transition diagram for Turing machine &#39;Tri State Busy Beaver&#39;</text>
<!-- start -->
<g id="node1" class="node">
<title>start</title>
<text text-anchor="middle" x="164.46" y="-284.42" font-family="Times New Roman,serif" font-size="14.00">start</text>
</g>
<!-- a -->
<g id="node2" class="node">
<title>a</title>
<ellipse fill="none" stroke="black" cx="164.46" cy="-216.47" rx="27" ry="18"/>
<text text-anchor="middle" x="164.46" y="-211.42" font-family="Times New Roman,serif" font-size="14.00">a</text>
</g>
<!-- start&#45;&gt;a -->
<g id="edge1" class="edge">
<title>start&#45;&gt;a</title>
<path fill="none" stroke="black" d="M164.46,-271.65C164.46,-264.04 164.46,-254.82 164.46,-246.17"/>
<polygon fill="black" stroke="black" points="167.96,-246.43 164.46,-236.44 160.96,-246.44 167.96,-246.43"/>
</g>
<!-- b -->
<g id="node3" class="node">
<title>b</title>
<ellipse fill="none" stroke="black" cx="155.46" cy="-28.74" rx="27" ry="18"/>
<text text-anchor="middle" x="155.46" y="-23.69" font-family="Times New Roman,serif" font-size="14.00">b</text>
</g>
<!-- a&#45;&gt;b -->
<g id="edge2" class="edge">
<title>a&#45;&gt;b</title>
<path fill="none" stroke="black" d="M147.69,-202.09C133.25,-189.41 113.44,-168.92 104.96,-145.97 92.83,-113.14 115.27,-76.23 134.01,-52.99"/>
<polygon fill="black" stroke="black" points="136.67,-55.25 140.46,-45.36 131.33,-50.73 136.67,-55.25"/>
<text text-anchor="middle" x="123.71" y="-122.92" font-family="Times New Roman,serif" font-size="14.00">0, 1, R</text>
</g>
<!-- c -->
<g id="node4" class="node">
<title>c</title>
<ellipse fill="none" stroke="black" cx="246.46" cy="-127.97" rx="27" ry="18"/>
<text text-anchor="middle" x="246.46" y="-122.92" font-family="Times New Roman,serif" font-size="14.00">c</text>
</g>
<!-- a&#45;&gt;c -->
<g id="edge3" class="edge">
<title>a&#45;&gt;c</title>
<path fill="none" stroke="black" d="M178.37,-200.8C191.09,-187.38 210.11,-167.31 224.82,-151.8"/>
<polygon fill="black" stroke="black" points="227.1,-154.48 231.44,-144.82 222.02,-149.67 227.1,-154.48"/>
<text text-anchor="middle" x="231.18" y="-167.17" font-family="Times New Roman,serif" font-size="14.00">1, 1, L</text>
</g>
<!-- b&#45;&gt;a -->
<g id="edge4" class="edge">
<title>b&#45;&gt;a</title>
<path fill="none" stroke="black" d="M156.3,-47.03C157.85,-78.98 161.17,-147.58 163.06,-186.66"/>
<polygon fill="black" stroke="black" points="159.56,-186.67 163.54,-196.49 166.55,-186.33 159.56,-186.67"/>
<text text-anchor="middle" x="179.38" y="-122.92" font-family="Times New Roman,serif" font-size="14.00">0, 1, L</text>
</g>
<!-- b&#45;&gt;b -->
<g id="edge5" class="edge">
<title>b&#45;&gt;b</title>
<path fill="none" stroke="black" d="M178.15,-38.69C189.88,-40.22 200.46,-36.9 200.46,-28.74 200.46,-23.38 195.9,-20.11 189.46,-18.93"/>
<polygon fill="black" stroke="black" points="189.71,-15.43 179.66,-18.81 189.62,-22.43 189.71,-15.43"/>
<text text-anchor="middle" x="219.21" y="-23.69" font-family="Times New Roman,serif" font-size="14.00">1, 1, R</text>
</g>
<!-- c&#45;&gt;b -->
<g id="edge6" class="edge">
<title>c&#45;&gt;b</title>
<path fill="none" stroke="black" d="M232.64,-112.21C217.81,-96.36 194.06,-70.98 176.82,-52.56"/>
<polygon fill="black" stroke="black" points="179.83,-50.66 170.44,-45.75 174.72,-55.44 179.83,-50.66"/>
<text text-anchor="middle" x="230.16" y="-78.67" font-family="Times New Roman,serif" font-size="14.00">0, 1, L</text>
</g>
<!-- halt -->
<g id="node5" class="node">
<title>halt</title>
<ellipse fill="none" stroke="black" cx="284.46" cy="-28.74" rx="24.74" ry="24.74"/>
<ellipse fill="none" stroke="black" cx="284.46" cy="-28.74" rx="28.74" ry="28.74"/>
<text text-anchor="middle" x="284.46" y="-23.69" font-family="Times New Roman,serif" font-size="14.00">halt</text>
</g>
<!-- c&#45;&gt;halt -->
<g id="edge7" class="edge">
<title>c&#45;&gt;halt</title>
<path fill="none" stroke="black" d="M253.08,-110.04C257.77,-98.04 264.24,-81.48 270.08,-66.52"/>
<polygon fill="black" stroke="black" points="273.27,-67.99 273.65,-57.4 266.75,-65.44 273.27,-67.99"/>
<text text-anchor="middle" x="284.58" y="-78.67" font-family="Times New Roman,serif" font-size="14.00">1, 1, N</text>
</g>
</g>
</svg>
