<?xml version="1.0" encoding="UTF-8" standalone="no"?>
<!DOCTYPE svg PUBLIC "-//W3C//DTD SVG 1.1//EN"
 "http://www.w3.org/Graphics/SVG/1.1/DTD/svg11.dtd">
<!-- Generated by graphviz version 12.2.1 (20241206.2353)
 -->
<!-- Pages: 1 -->
<svg width="392pt" height="522pt"
 viewBox="0.00 0.00 392.25 522.37" xmlns="http://www.w3.org/2000/svg" xmlns:xlink="http://www.w3.org/1999/xlink">
<g id="graph0" class="graph" transform="scale(1 1) rotate(0) translate(4 518.37)">
<polygon fill="white" stroke="none" points="-4,4 -4,-518.37 388.25,-518.37 388.25,4 -4,4"/>
<text text-anchor="middle" x="192.12" y="-497.07" font-family="Liberation Sans italic bold" font-size="14.00">Transition diagram for Turing machine &#39;Doubler Machine&#39;</text>
<!-- start -->
<g id="node1" class="node">
<title>start</title>
<text text-anchor="middle" x="170.28" y="-467.57" font-family="Times New Roman,serif" font-size="14.00">start</text>
</g>
<!-- s1 -->
<g id="node2" class="node">
<title>s1</title>
<ellipse fill="none" stroke="black" cx="170.28" cy="-399.62" rx="27" ry="18"/>
<text text-anchor="middle" x="170.28" y="-394.57" font-family="Times New Roman,serif" font-size="14.00">s1</text>
</g>
<!-- start&#45;&gt;s1 -->
<g id="edge1" class="edge">
<title>start&#45;&gt;s1</title>
<path fill="none" stroke="black" d="M170.28,-454.79C170.28,-447.18 170.28,-437.97 170.28,-429.31"/>
<polygon fill="black" stroke="black" points="173.78,-429.58 170.28,-419.58 166.78,-429.58 173.78,-429.58"/>
</g>
<!-- final -->
<g id="node3" class="node">
<title>final</title>
<ellipse fill="none" stroke="black" cx="93.28" cy="-297.31" rx="27.81" ry="27.81"/>
<ellipse fill="none" stroke="black" cx="93.28" cy="-297.31" rx="31.81" ry="31.81"/>
<text text-anchor="middle" x="93.28" y="-292.26" font-family="Times New Roman,serif" font-size="14.00">final</text>
</g>
<!-- s1&#45;&gt;final -->
<g id="edge2" class="edge">
<title>s1&#45;&gt;final</title>
<path fill="none" stroke="black" d="M152.04,-386.03C144.02,-379.89 134.89,-372.03 128.03,-363.62 121.54,-355.66 115.72,-346.31 110.78,-337.2"/>
<polygon fill="black" stroke="black" points="113.97,-335.75 106.28,-328.47 107.74,-338.96 113.97,-335.75"/>
<text text-anchor="middle" x="147.15" y="-350.32" font-family="Times New Roman,serif" font-size="14.00">0, 0, N</text>
</g>
<!-- s2 -->
<g id="node4" class="node">
<title>s2</title>
<ellipse fill="none" stroke="black" cx="170.28" cy="-297.31" rx="27" ry="18"/>
<text text-anchor="middle" x="170.28" y="-292.26" font-family="Times New Roman,serif" font-size="14.00">s2</text>
</g>
<!-- s1&#45;&gt;s2 -->
<g id="edge3" class="edge">
<title>s1&#45;&gt;s2</title>
<path fill="none" stroke="black" d="M170.28,-381.14C170.28,-366.19 170.28,-344.36 170.28,-326.86"/>
<polygon fill="black" stroke="black" points="173.78,-327.09 170.28,-317.09 166.78,-327.09 173.78,-327.09"/>
<text text-anchor="middle" x="189.03" y="-350.32" font-family="Times New Roman,serif" font-size="14.00">1, 0, R</text>
</g>
<!-- s2&#45;&gt;s2 -->
<g id="edge4" class="edge">
<title>s2&#45;&gt;s2</title>
<path fill="none" stroke="black" d="M192.51,-307.75C204.42,-309.52 215.28,-306.04 215.28,-297.31 215.28,-291.44 210.38,-287.95 203.55,-286.82"/>
<polygon fill="black" stroke="black" points="204,-283.32 194.02,-286.86 204.04,-290.32 204,-283.32"/>
<text text-anchor="middle" x="234.03" y="-292.26" font-family="Times New Roman,serif" font-size="14.00">1, 1, R</text>
</g>
<!-- s3 -->
<g id="node5" class="node">
<title>s3</title>
<ellipse fill="none" stroke="black" cx="166.28" cy="-195" rx="27" ry="18"/>
<text text-anchor="middle" x="166.28" y="-189.95" font-family="Times New Roman,serif" font-size="14.00">s3</text>
</g>
<!-- s2&#45;&gt;s3 -->
<g id="edge5" class="edge">
<title>s2&#45;&gt;s3</title>
<path fill="none" stroke="black" d="M169.58,-278.84C168.99,-263.88 168.12,-242.05 167.42,-224.55"/>
<polygon fill="black" stroke="black" points="170.92,-224.64 167.03,-214.78 163.93,-224.92 170.92,-224.64"/>
<text text-anchor="middle" x="187.03" y="-234.2" font-family="Times New Roman,serif" font-size="14.00">0, 0, R</text>
</g>
<!-- s3&#45;&gt;s3 -->
<g id="edge6" class="edge">
<title>s3&#45;&gt;s3</title>
<path fill="none" stroke="black" d="M190.81,-203.17C201.79,-203.95 211.28,-201.22 211.28,-195 211.28,-191.11 207.57,-188.59 202.11,-187.43"/>
<polygon fill="black" stroke="black" points="202.49,-183.95 192.32,-186.91 202.12,-190.94 202.49,-183.95"/>
<text text-anchor="middle" x="230.03" y="-189.95" font-family="Times New Roman,serif" font-size="14.00">1, 1, R</text>
</g>
<!-- s4 -->
<g id="node6" class="node">
<title>s4</title>
<ellipse fill="none" stroke="black" cx="173.28" cy="-106.5" rx="27" ry="18"/>
<text text-anchor="middle" x="173.28" y="-101.45" font-family="Times New Roman,serif" font-size="14.00">s4</text>
</g>
<!-- s3&#45;&gt;s4 -->
<g id="edge7" class="edge">
<title>s3&#45;&gt;s4</title>
<path fill="none" stroke="black" d="M167.66,-176.91C168.61,-165.26 169.88,-149.55 170.97,-136.02"/>
<polygon fill="black" stroke="black" points="174.43,-136.61 171.75,-126.36 167.46,-136.04 174.43,-136.61"/>
<text text-anchor="middle" x="188.78" y="-145.7" font-family="Times New Roman,serif" font-size="14.00">0, 1, L</text>
</g>
<!-- s4&#45;&gt;s4 -->
<g id="edge8" class="edge">
<title>s4&#45;&gt;s4</title>
<path fill="none" stroke="black" d="M197.81,-114.67C208.79,-115.45 218.28,-112.72 218.28,-106.5 218.28,-102.61 214.57,-100.09 209.11,-98.93"/>
<polygon fill="black" stroke="black" points="209.49,-95.45 199.32,-98.41 209.12,-102.44 209.49,-95.45"/>
<text text-anchor="middle" x="236.65" y="-101.45" font-family="Times New Roman,serif" font-size="14.00">1, 1, L</text>
</g>
<!-- s5 -->
<g id="node7" class="node">
<title>s5</title>
<ellipse fill="none" stroke="black" cx="229.28" cy="-18" rx="27" ry="18"/>
<text text-anchor="middle" x="229.28" y="-12.95" font-family="Times New Roman,serif" font-size="14.00">s5</text>
</g>
<!-- s4&#45;&gt;s5 -->
<g id="edge9" class="edge">
<title>s4&#45;&gt;s5</title>
<path fill="none" stroke="black" d="M183.55,-89.63C191.71,-77.03 203.28,-59.16 212.74,-44.55"/>
<polygon fill="black" stroke="black" points="215.56,-46.62 218.06,-36.33 209.69,-42.82 215.56,-46.62"/>
<text text-anchor="middle" x="224.67" y="-57.2" font-family="Times New Roman,serif" font-size="14.00">0, 0, L</text>
</g>
<!-- s5&#45;&gt;s1 -->
<g id="edge11" class="edge">
<title>s5&#45;&gt;s1</title>
<path fill="none" stroke="black" d="M245.48,-32.83C262.02,-48.58 285.28,-75.98 285.28,-105.5 285.28,-298.31 285.28,-298.31 285.28,-298.31 285.28,-341.7 238.21,-370.62 204.3,-385.83"/>
<polygon fill="black" stroke="black" points="203.05,-382.56 195.22,-389.7 205.79,-389 203.05,-382.56"/>
<text text-anchor="middle" x="304.03" y="-189.95" font-family="Times New Roman,serif" font-size="14.00">0, 1, R</text>
</g>
<!-- s5&#45;&gt;s5 -->
<g id="edge10" class="edge">
<title>s5&#45;&gt;s5</title>
<path fill="none" stroke="black" d="M253.81,-26.17C264.79,-26.95 274.28,-24.22 274.28,-18 274.28,-14.11 270.57,-11.59 265.11,-10.43"/>
<polygon fill="black" stroke="black" points="265.49,-6.95 255.32,-9.91 265.12,-13.94 265.49,-6.95"/>
<text text-anchor="middle" x="292.65" y="-12.95" font-family="Times New Roman,serif" font-size="14.00">1, 1, L</text>
</g>
</g>
</svg>
