<?xml version="1.0" encoding="UTF-8" standalone="no"?>
<!DOCTYPE svg PUBLIC "-//W3C//DTD SVG 1.1//EN"
 "http://www.w3.org/Graphics/SVG/1.1/DTD/svg11.dtd">
<!-- Generated by graphviz version 12.2.1 (20241206.2353)
 -->
<!-- Pages: 1 -->
<svg width="374pt" height="348pt"
 viewBox="0.00 0.00 373.50 348.42" xmlns="http://www.w3.org/2000/svg" xmlns:xlink="http://www.w3.org/1999/xlink">
<g id="graph0" class="graph" transform="scale(1 1) rotate(0) translate(4 344.42)">
<polygon fill="white" stroke="none" points="-4,4 -4,-344.42 369.5,-344.42 369.5,4 -4,4"/>
<text text-anchor="middle" x="182.75" y="-323.12" font-family="Liberation Sans italic bold" font-size="14.00">Transition diagram for Turing machine &#39;Even Machine&#39;</text>
<!-- start -->
<g id="node1" class="node">
<title>start</title>
<text text-anchor="middle" x="170.15" y="-293.62" font-family="Times New Roman,serif" font-size="14.00">start</text>
</g>
<!-- s0 -->
<g id="node2" class="node">
<title>s0</title>
<ellipse fill="none" stroke="black" cx="170.15" cy="-225.67" rx="27" ry="18"/>
<text text-anchor="middle" x="170.15" y="-220.62" font-family="Times New Roman,serif" font-size="14.00">s0</text>
</g>
<!-- start&#45;&gt;s0 -->
<g id="edge1" class="edge">
<title>start&#45;&gt;s0</title>
<path fill="none" stroke="black" d="M170.15,-280.84C170.15,-273.23 170.15,-264.01 170.15,-255.36"/>
<polygon fill="black" stroke="black" points="173.65,-255.63 170.15,-245.63 166.65,-255.63 173.65,-255.63"/>
</g>
<!-- s1 -->
<g id="node3" class="node">
<title>s1</title>
<ellipse fill="none" stroke="black" cx="134.15" cy="-127.96" rx="27" ry="18"/>
<text text-anchor="middle" x="134.15" y="-122.91" font-family="Times New Roman,serif" font-size="14.00">s1</text>
</g>
<!-- s0&#45;&gt;s1 -->
<g id="edge2" class="edge">
<title>s0&#45;&gt;s1</title>
<path fill="none" stroke="black" d="M146.11,-217.15C133.14,-211.73 118.27,-202.98 110.65,-189.67 104.14,-178.29 108.36,-164.75 114.91,-153.36"/>
<polygon fill="black" stroke="black" points="117.67,-155.54 120.24,-145.26 111.82,-151.69 117.67,-155.54"/>
<text text-anchor="middle" x="129.4" y="-176.37" font-family="Times New Roman,serif" font-size="14.00">1, 1, R</text>
</g>
<!-- yes -->
<g id="node4" class="node">
<title>yes</title>
<ellipse fill="none" stroke="black" cx="231.15" cy="-127.96" rx="23.2" ry="23.2"/>
<ellipse fill="none" stroke="black" cx="231.15" cy="-127.96" rx="27.2" ry="27.2"/>
<text text-anchor="middle" x="231.15" y="-122.91" font-family="Times New Roman,serif" font-size="14.00">yes</text>
</g>
<!-- s0&#45;&gt;yes -->
<g id="edge4" class="edge">
<title>s0&#45;&gt;yes</title>
<path fill="none" stroke="black" d="M183.3,-209.43C188.21,-203.45 193.67,-196.41 198.15,-189.67 203.73,-181.26 209.21,-171.83 214.04,-162.95"/>
<polygon fill="black" stroke="black" points="217.08,-164.69 218.69,-154.22 210.9,-161.4 217.08,-164.69"/>
<text text-anchor="middle" x="227.23" y="-176.37" font-family="Times New Roman,serif" font-size="14.00">0, 0, N</text>
</g>
<!-- s1&#45;&gt;s0 -->
<g id="edge3" class="edge">
<title>s1&#45;&gt;s0</title>
<path fill="none" stroke="black" d="M140.47,-145.76C145.82,-159.99 153.59,-180.66 159.84,-197.27"/>
<polygon fill="black" stroke="black" points="156.55,-198.45 163.35,-206.58 163.1,-195.99 156.55,-198.45"/>
<text text-anchor="middle" x="175.18" y="-176.37" font-family="Times New Roman,serif" font-size="14.00">1, 1, R</text>
</g>
<!-- no -->
<g id="node5" class="node">
<title>no</title>
<ellipse fill="none" stroke="black" cx="134.15" cy="-24.13" rx="20.13" ry="20.13"/>
<ellipse fill="none" stroke="black" cx="134.15" cy="-24.13" rx="24.13" ry="24.13"/>
<text text-anchor="middle" x="134.15" y="-19.08" font-family="Times New Roman,serif" font-size="14.00">no</text>
</g>
<!-- s1&#45;&gt;no -->
<g id="edge5" class="edge">
<title>s1&#45;&gt;no</title>
<path fill="none" stroke="black" d="M134.15,-109.69C134.15,-96.04 134.15,-76.56 134.15,-59.73"/>
<polygon fill="black" stroke="black" points="137.65,-60.13 134.15,-50.13 130.65,-60.13 137.65,-60.13"/>
<text text-anchor="middle" x="153.27" y="-69.46" font-family="Times New Roman,serif" font-size="14.00">0, 0, N</text>
</g>
</g>
</svg>
