<?xml version="1.0" encoding="UTF-8" standalone="no"?>
<!DOCTYPE svg PUBLIC "-//W3C//DTD SVG 1.1//EN"
 "http://www.w3.org/Graphics/SVG/1.1/DTD/svg11.dtd">
<!-- Generated by graphviz version 12.2.1 (20241206.2353)
 -->
<!-- Pages: 1 -->
<svg width="388pt" height="416pt"
 viewBox="0.00 0.00 387.75 416.47" xmlns="http://www.w3.org/2000/svg" xmlns:xlink="http://www.w3.org/1999/xlink">
<g id="graph0" class="graph" transform="scale(1 1) rotate(0) translate(4 412.47)">
<polygon fill="white" stroke="none" points="-4,4 -4,-412.47 383.75,-412.47 383.75,4 -4,4"/>
<text text-anchor="middle" x="189.88" y="-391.17" font-family="Liberation Sans italic bold" font-size="14.00">Transition diagram for Turing machine &#39;Adding Machine&#39;</text>
<!-- start -->
<g id="node1" class="node">
<title>start</title>
<text text-anchor="middle" x="162.12" y="-361.67" font-family="Times New Roman,serif" font-size="14.00">start</text>
</g>
<!-- s0 -->
<g id="node2" class="node">
<title>s0</title>
<ellipse fill="none" stroke="black" cx="162.12" cy="-293.72" rx="27" ry="18"/>
<text text-anchor="middle" x="162.12" y="-288.67" font-family="Times New Roman,serif" font-size="14.00">s0</text>
</g>
<!-- start&#45;&gt;s0 -->
<g id="edge1" class="edge">
<title>start&#45;&gt;s0</title>
<path fill="none" stroke="black" d="M162.12,-348.89C162.12,-341.28 162.12,-332.06 162.12,-323.41"/>
<polygon fill="black" stroke="black" points="165.63,-323.68 162.13,-313.68 158.63,-323.68 165.63,-323.68"/>
</g>
<!-- s0&#45;&gt;s0 -->
<g id="edge2" class="edge">
<title>s0&#45;&gt;s0</title>
<path fill="none" stroke="black" d="M187.57,-300.5C198.15,-300.97 207.12,-298.71 207.12,-293.72 207.12,-290.67 203.79,-288.65 198.8,-287.63"/>
<polygon fill="black" stroke="black" points="199.28,-284.16 189.08,-287.03 198.84,-291.14 199.28,-284.16"/>
<text text-anchor="middle" x="225.88" y="-288.67" font-family="Times New Roman,serif" font-size="14.00">1, 1, R</text>
</g>
<!-- s1 -->
<g id="node3" class="node">
<title>s1</title>
<ellipse fill="none" stroke="black" cx="162.12" cy="-205.22" rx="27" ry="18"/>
<text text-anchor="middle" x="162.12" y="-200.17" font-family="Times New Roman,serif" font-size="14.00">s1</text>
</g>
<!-- s0&#45;&gt;s1 -->
<g id="edge3" class="edge">
<title>s0&#45;&gt;s1</title>
<path fill="none" stroke="black" d="M162.12,-275.63C162.12,-263.97 162.12,-248.26 162.12,-234.73"/>
<polygon fill="black" stroke="black" points="165.63,-235.08 162.13,-225.08 158.63,-235.08 165.63,-235.08"/>
<text text-anchor="middle" x="181.25" y="-244.42" font-family="Times New Roman,serif" font-size="14.00">0, 1, N</text>
</g>
<!-- s1&#45;&gt;s1 -->
<g id="edge4" class="edge">
<title>s1&#45;&gt;s1</title>
<path fill="none" stroke="black" d="M186.66,-213.38C197.63,-214.16 207.12,-211.44 207.12,-205.22 207.12,-201.33 203.42,-198.8 197.96,-197.65"/>
<polygon fill="black" stroke="black" points="198.34,-194.16 188.17,-197.13 197.97,-201.16 198.34,-194.16"/>
<text text-anchor="middle" x="225.88" y="-200.17" font-family="Times New Roman,serif" font-size="14.00">1, 1, R</text>
</g>
<!-- s2 -->
<g id="node4" class="node">
<title>s2</title>
<ellipse fill="none" stroke="black" cx="162.12" cy="-116.72" rx="27" ry="18"/>
<text text-anchor="middle" x="162.12" y="-111.67" font-family="Times New Roman,serif" font-size="14.00">s2</text>
</g>
<!-- s1&#45;&gt;s2 -->
<g id="edge5" class="edge">
<title>s1&#45;&gt;s2</title>
<path fill="none" stroke="black" d="M162.12,-187.13C162.12,-175.47 162.12,-159.76 162.12,-146.23"/>
<polygon fill="black" stroke="black" points="165.63,-146.58 162.13,-136.58 158.63,-146.58 165.63,-146.58"/>
<text text-anchor="middle" x="180.5" y="-155.92" font-family="Times New Roman,serif" font-size="14.00">0, 0, L</text>
</g>
<!-- s3 -->
<g id="node5" class="node">
<title>s3</title>
<ellipse fill="none" stroke="black" cx="162.12" cy="-23.11" rx="19.11" ry="19.11"/>
<ellipse fill="none" stroke="black" cx="162.12" cy="-23.11" rx="23.11" ry="23.11"/>
<text text-anchor="middle" x="162.12" y="-18.06" font-family="Times New Roman,serif" font-size="14.00">s3</text>
</g>
<!-- s2&#45;&gt;s3 -->
<g id="edge6" class="edge">
<title>s2&#45;&gt;s3</title>
<path fill="none" stroke="black" d="M162.12,-98.48C162.12,-86.98 162.12,-71.48 162.12,-57.61"/>
<polygon fill="black" stroke="black" points="165.63,-57.98 162.13,-47.98 158.63,-57.98 165.63,-57.98"/>
<text text-anchor="middle" x="181.25" y="-67.42" font-family="Times New Roman,serif" font-size="14.00">1, 0, N</text>
</g>
</g>
</svg>
